<svg width="32" height="32" viewBox="0 0 32 32" fill="none" xmlns="http://www.w3.org/2000/svg">
<g clip-path="url(#clip0_1651_3034)">
<path d="M0 0C10.56 0 21.12 0 32 0C32 10.56 32 21.12 32 32C21.44 32 10.88 32 0 32C0 21.44 0 10.88 0 0Z" fill="white"/>
<path d="M21.8358 15.2444C23.4134 16.61 24.5501 18.2991 24.9724 20.3642C24.9851 20.4146 24.9978 20.4649 25.0108 20.5168C25.1529 21.1228 25.1508 21.7259 25.1501 22.3444C25.1504 22.4606 25.1508 22.5767 25.1511 22.6929C25.1517 22.9352 25.1517 23.1774 25.1513 23.4197C25.1508 23.728 25.1521 24.0363 25.1539 24.3446C25.1551 24.5841 25.1551 24.8236 25.1549 25.0632C25.1549 25.1767 25.1553 25.2903 25.1561 25.4039C25.1645 26.7961 24.8005 27.728 23.844 28.7511C23.554 29.0208 23.2403 29.2084 22.8874 29.3851C22.8257 29.416 22.764 29.4469 22.7004 29.4788C22.0743 29.7735 21.4957 29.7809 20.8121 29.7754C20.7294 29.7751 20.6468 29.7747 20.5617 29.7744C20.3588 29.7735 20.1559 29.7722 19.953 29.7706C19.9525 29.6273 19.9525 29.6273 19.9521 29.4812C19.9492 28.5783 19.9448 27.6754 19.9388 26.7725C19.9357 26.3084 19.9332 25.8443 19.932 25.3802C19.9309 24.9318 19.9282 24.4833 19.9245 24.0349C19.9234 23.8644 19.9228 23.6939 19.9227 23.5233C19.9333 22.2569 19.9333 22.2569 19.5668 21.0581C19.5241 20.9678 19.4814 20.8774 19.4374 20.7843C18.8525 19.7989 18.1137 19.1852 16.9923 18.8672C16.6545 18.7931 16.3256 18.7844 15.9808 18.7884C15.9098 18.789 15.8387 18.7896 15.7655 18.7902C15.2324 18.8031 14.7902 18.8759 14.3157 19.1306C14.2487 19.165 14.1817 19.1995 14.1127 19.2351C13.0914 19.8019 12.5729 20.6553 12.2307 21.752C12.1685 21.9698 12.1432 22.1639 12.1412 22.3902C12.1405 22.4555 12.1397 22.5208 12.1389 22.5881C12.1385 22.6591 12.1381 22.7301 12.1376 22.8032C12.1368 22.8785 12.1361 22.9537 12.1353 23.0312C12.1328 23.2799 12.1309 23.5285 12.129 23.7771C12.1274 23.9496 12.1258 24.122 12.1242 24.2944C12.1199 24.7482 12.1161 25.202 12.1124 25.6557C12.1085 26.1188 12.1042 26.5819 12.0999 27.0449C12.0916 27.9535 12.0838 28.862 12.0762 29.7706C11.7791 29.7741 11.482 29.7763 11.1848 29.7781C11.0594 29.7796 11.0594 29.7796 10.9313 29.7812C9.75456 29.7868 8.86372 29.4015 7.9979 28.5948C7.65074 28.2314 7.42476 27.8323 7.21119 27.3804C7.1858 27.3285 7.16042 27.2765 7.13427 27.2229C6.9286 26.7778 6.89275 26.3489 6.88985 25.8639C6.88911 25.7629 6.88837 25.662 6.88761 25.558C6.88723 25.4485 6.8869 25.3389 6.88661 25.2294C6.88639 25.1736 6.88617 25.1177 6.88595 25.0601C6.88479 24.7637 6.88408 24.4674 6.88375 24.171C6.88333 23.8684 6.88148 23.5659 6.87927 23.2633C6.87781 23.0277 6.87743 22.7921 6.87731 22.5564C6.87708 22.4451 6.87647 22.3338 6.87544 22.2225C6.86643 21.1727 6.99388 20.1554 7.37529 19.1691C7.40971 19.0783 7.40971 19.0783 7.44482 18.9856C7.79799 18.0868 8.27421 17.239 8.91009 16.5091C8.96315 16.4469 9.01621 16.3847 9.07087 16.3206C10.4176 14.7805 12.1066 13.8321 14.084 13.3479C14.1586 13.3289 14.2331 13.31 14.31 13.2904C16.8964 12.7485 19.821 13.5738 21.8358 15.2444Z" fill="#72AEAB"/>
<path d="M21.7872 15.2354C23.3613 16.5958 24.4926 18.2764 24.9153 20.3334C24.9289 20.3931 24.9424 20.4529 24.9564 20.5144C24.9933 20.7224 25.0011 20.9131 24.9999 21.1242C24.9996 21.1992 24.9994 21.2741 24.9991 21.3514C24.9985 21.4287 24.9978 21.506 24.9972 21.5857C24.9968 21.6646 24.9965 21.7434 24.9961 21.8246C24.9952 22.0185 24.9939 22.2124 24.9924 22.4062C24.7561 22.2885 24.6999 22.0599 24.5928 21.8304C24.3639 21.3598 24.1125 20.9549 23.7601 20.5637C23.704 20.5006 23.648 20.4376 23.5902 20.3727C22.5343 19.252 20.9231 18.4789 19.3768 18.403C18.4412 18.3742 17.4968 18.3456 16.5979 18.6444C16.4345 18.6558 16.2707 18.6613 16.1069 18.6635C15.9774 18.6665 15.9774 18.6665 15.8452 18.6695C15.5677 18.6601 15.3153 18.5978 15.0465 18.5301C14.5236 18.404 14.0298 18.3757 13.4933 18.3804C13.4027 18.3809 13.3121 18.3814 13.2188 18.3819C12.5033 18.3946 11.8836 18.4898 11.2069 18.7211C11.0945 18.7557 11.0945 18.7557 10.9798 18.791C9.34546 19.3279 8.15521 20.4185 7.27923 21.8688C7.25381 21.9448 7.2284 22.0208 7.20221 22.0992C7.12597 22.0738 6.92635 22.1253 6.84779 22.0992C6.78107 20.0643 7.54309 18.0458 8.89651 16.4947C8.94942 16.4327 9.00234 16.3708 9.05686 16.307C10.3999 14.7734 12.0844 13.829 14.0564 13.347C14.1308 13.3281 14.2051 13.3092 14.2817 13.2897C16.8612 12.7501 19.7779 13.5719 21.7872 15.2354Z" fill="#584C91"/>
<path d="M19.9375 3.625C21.6726 3.625 22.7407 3.64909 23.9854 4.83045C24.8246 5.72569 25.1005 6.68447 25.0936 7.88545C25.0936 7.98879 25.0936 8.09214 25.0937 8.19549C25.0937 8.47476 25.0928 8.75401 25.0918 9.03328C25.0908 9.32561 25.0907 9.61794 25.0905 9.91027C25.0901 10.4633 25.0888 11.0163 25.0873 11.5692C25.0855 12.1991 25.0847 12.8289 25.0839 13.4587C25.0823 14.7537 25.0796 16.0487 25.0762 17.3438C24.8439 17.0568 24.6418 16.7619 24.4483 16.4478C23.3495 14.7061 21.8003 13.5988 19.9375 12.7965C19.9375 9.76992 19.9375 6.74332 19.9375 3.625Z" fill="#A276A6"/>
<path d="M12.0625 3.625C12.0625 6.6516 12.0625 9.67821 12.0625 12.7965C11.7576 12.9237 11.4527 13.0509 11.1385 13.1819C10.9369 13.289 10.7446 13.3946 10.5514 13.5143C10.4785 13.5589 10.4785 13.5589 10.404 13.6044C9.97972 13.8688 9.5916 14.1647 9.21363 14.4921C9.1515 14.5432 9.08937 14.5942 9.02535 14.6468C8.1411 15.3988 7.52018 16.3257 6.98074 17.3438C6.95533 17.3438 6.92992 17.3438 6.90374 17.3438C6.89833 15.9904 6.89427 14.6371 6.89177 13.2837C6.89058 12.6553 6.88896 12.0269 6.88631 11.3984C6.88401 10.8504 6.88252 10.3025 6.88201 9.75446C6.88171 9.46452 6.881 9.1746 6.87932 8.88467C6.87774 8.61126 6.87727 8.33787 6.87761 8.06445C6.87752 7.91733 6.87628 7.77021 6.875 7.62309C6.87909 6.47379 7.25123 5.63757 8.03432 4.80335C9.19916 3.65114 10.4193 3.625 12.0625 3.625Z" fill="#2B2A5C"/>
<path d="M13.4466 18.3486C13.5805 18.3462 13.5805 18.3462 13.7171 18.3438C14.3512 18.341 14.9203 18.4312 15.5312 18.599C15.5312 18.6499 15.5312 18.7007 15.5312 18.7531C15.4613 18.7709 15.3913 18.7887 15.3192 18.807C14.2464 19.0936 13.3375 19.5436 12.7228 20.5155C12.409 21.0832 12.1276 21.7391 12.1218 22.3956C12.1211 22.4609 12.1203 22.5261 12.1195 22.5934C12.1191 22.6643 12.1186 22.7352 12.1182 22.8083C12.1174 22.8835 12.1167 22.9587 12.1159 23.0362C12.1134 23.2846 12.1115 23.5331 12.1096 23.7815C12.108 23.9538 12.1064 24.1261 12.1047 24.2984C12.1005 24.7519 12.0967 25.2053 12.0929 25.6588C12.0891 26.1215 12.0848 26.5842 12.0805 27.0469C12.0722 27.9548 12.0644 28.8627 12.0568 29.7706C11.7598 29.7741 11.4627 29.7763 11.1656 29.7781C11.0401 29.7796 11.0401 29.7796 10.9121 29.7812C9.73556 29.7868 8.84488 29.4018 7.97921 28.5957C7.63211 28.2326 7.40617 27.8337 7.19264 27.3822C7.15457 27.3043 7.15457 27.3043 7.11573 27.2248C6.90658 26.7724 6.87412 26.34 6.87503 25.8472C6.87502 25.796 6.87501 25.7449 6.875 25.6921C6.87505 25.5246 6.87565 25.357 6.87626 25.1894C6.8764 25.0726 6.87651 24.9558 6.87659 24.839C6.87688 24.5328 6.87764 24.2265 6.8785 23.9202C6.87929 23.6072 6.87964 23.2943 6.88003 22.9813C6.88086 22.368 6.88217 21.7548 6.8838 21.1415C6.90928 21.1415 6.93476 21.1415 6.96101 21.1415C6.96479 21.2074 6.96857 21.2732 6.97247 21.3411C6.97824 21.4262 6.98401 21.5113 6.98996 21.599C6.99534 21.6839 7.00071 21.7688 7.00625 21.8563C7.0168 21.9255 7.02735 21.9947 7.03822 22.0661C7.08918 22.0915 7.14013 22.1169 7.19264 22.1431C7.20488 22.0788 7.20488 22.0788 7.21737 22.0131C7.57089 20.8129 8.83247 19.8049 9.88301 19.212C10.5773 18.8415 11.2901 18.6164 12.0568 18.4449C12.1162 18.4314 12.1756 18.4178 12.2368 18.4039C12.6362 18.3341 13.0422 18.3504 13.4466 18.3486Z" fill="#8D74AC"/>
<path d="M16 13.1254C18.8114 13.0781 20.2746 13.732 22.3537 15.7229C23.6453 16.9953 24.5494 18.5343 24.9155 20.326C24.929 20.3859 24.9425 20.4459 24.9565 20.5077C24.9933 20.7165 25.0011 20.9079 24.9999 21.1198C24.9996 21.195 24.9994 21.2703 24.9991 21.3478C24.9985 21.4254 24.9978 21.5031 24.9972 21.5831C24.9968 21.6622 24.9965 21.7413 24.9961 21.8228C24.9952 22.0174 24.994 22.2121 24.9924 22.4067C24.7566 22.2885 24.7005 22.059 24.5936 21.8287C24.3651 21.3562 24.1143 20.9498 23.7625 20.5572C23.7066 20.4939 23.6506 20.4306 23.5929 20.3654C22.5391 19.2406 20.931 18.4645 19.3877 18.3883C18.4539 18.3595 17.5113 18.3308 16.6142 18.6306C16.4112 18.6306 16.2083 18.6306 15.9992 18.6306C15.9992 16.8504 15.9992 15.0703 15.9992 13.2362C15.9844 13.1254 16.3397 13.2348 16 13.2348C16 13.2094 16 13.1516 16 13.1254Z" fill="#478383"/>
<path d="M6.875 21.75C6.9025 21.75 6.93 21.75 6.95833 21.75C6.96338 21.7877 6.96843 21.8253 6.97363 21.8642C6.98062 21.9134 6.9876 21.9626 6.99479 22.0134C7.00156 22.0623 7.00833 22.1112 7.0153 22.1615C7.03351 22.2965 7.03351 22.2965 7.125 22.4297C7.04688 22.5515 7.04687 22.5515 6.95833 22.6562C6.93083 22.6562 6.90333 22.6562 6.875 22.6562C6.875 22.3572 6.875 22.0581 6.875 21.75Z" fill="#8D74AC"/>
</g>
<defs>
<clipPath id="clip0_1651_3034">
<rect width="32" height="32" rx="3" fill="white"/>
</clipPath>
</defs>
</svg>
